<svg width="200" height="201" viewBox="0 0 200 201" fill="none" xmlns="http://www.w3.org/2000/svg">
<rect width="200" height="200" transform="translate(0 0.264526)" fill="white"/>
<path d="M65.9521 151.765V67.1777H35.0595V48.7893H116.851V67.1777H86.1058V151.765H65.9521ZM124.351 151.765V70.8554C124.351 63.0097 126.362 56.9292 130.383 52.6141C134.404 48.2009 140.533 45.9943 148.771 45.9943C151.615 45.9943 154.607 46.4846 157.745 47.4653C160.981 48.446 163.923 49.6229 166.571 50.9959L159.363 64.9711C157.794 64.1865 156.372 63.5981 155.097 63.2058C153.822 62.8135 152.645 62.6174 151.566 62.6174C148.918 62.6174 146.957 63.5491 145.682 65.4124C144.407 67.1777 143.77 70.0708 143.77 74.0918V151.765H124.351ZM112.142 93.8042V78.2108H161.864V93.8042H112.142Z" fill="black"/>
</svg>
